<?xml version="1.0" encoding="UTF-8" standalone="no"?>
<!-- Created with Inkscape (http://www.inkscape.org/) -->

<svg
   width="64.0px"
   height="64.0px"
   viewBox="0 0 64.0 64.0"
   version="1.1"
   id="SVGRoot"
   sodipodi:docname="logo.svg"
   inkscape:export-filename="logo-192.png"
   inkscape:export-xdpi="288"
   inkscape:export-ydpi="288"
   inkscape:version="1.2 (dc2aedaf03, 2022-05-15)"
   xmlns:inkscape="http://www.inkscape.org/namespaces/inkscape"
   xmlns:sodipodi="http://sodipodi.sourceforge.net/DTD/sodipodi-0.dtd"
   xmlns="http://www.w3.org/2000/svg"
   xmlns:svg="http://www.w3.org/2000/svg">
  <sodipodi:namedview
     id="namedview14"
     pagecolor="#505050"
     bordercolor="#ffffff"
     borderopacity="1"
     inkscape:showpageshadow="0"
     inkscape:pageopacity="0"
     inkscape:pagecheckerboard="1"
     inkscape:deskcolor="#505050"
     inkscape:document-units="px"
     showgrid="true"
     inkscape:zoom="13.455443"
     inkscape:cx="22.295809"
     inkscape:cy="38.348792"
     inkscape:current-layer="layer1"
     inkscape:lockguides="false"
     showguides="true" />
  <defs
     id="defs9" />
  <g
     inkscape:label="Layer 1"
     inkscape:groupmode="layer"
     id="layer1">
    <rect
       style="fill:#1a1919;fill-opacity:1;stroke:none;stroke-width:50;stroke-linecap:round;stroke-linejoin:miter;paint-order:markers fill stroke"
       id="rect129"
       width="64"
       height="64"
       x="0"
       y="-0.088823855"
       inkscape:label="rect129" />
    <g
       aria-label="SW"
       id="text8582"
       style="font-weight:bold;font-size:32px;line-height:1.865;font-family:'Helvetica Neue LT Com';-inkscape-font-specification:'Helvetica Neue LT Com, Bold';letter-spacing:0px;word-spacing:0px;fill:#ffffff;stroke-width:0.2" />
    <g
       id="g8674"
       transform="translate(-0.5653966,-1.1654134)">
      <path
         d="m 9.7589322,24.576 v 0.8 q 0,1.312 0.4479998,2.176 0.48,0.864 1.888,0.864 0.704,0 1.152,-0.224 0.48,-0.256 0.768,-0.64 0.288,-0.384 0.384,-0.864 0.128,-0.512 0.128,-0.992 0,-1.216 -0.736,-1.888 -0.704,-0.704 -1.824,-1.184 -1.088,-0.48 -2.3679998,-0.928 -1.248,-0.448 -2.368,-1.216 -1.088,-0.8 -1.824,-2.08 -0.704,-1.28 -0.704,-3.424 0,-1.376 0.384,-2.592 0.384,-1.216 1.28,-2.112 0.896,-0.928 2.304,-1.472 1.4399998,-0.544 3.5199998,-0.544 2.016,0 3.392,0.48 1.408,0.48 2.272,1.344 0.864,0.832 1.248,1.984 0.384,1.12 0.384,2.432 v 0.544 h -5.184 q 0,-1.664 -0.448,-2.4 -0.48,-0.8 -1.632,-0.8 -2.144,0 -2.144,2.464 0,1.216 0.704,1.888 0.736,0.672 1.824,1.152 1.12,0.48 2.368,0.96 1.28,0.448 2.368,1.216 1.12,0.736 1.824,1.984 0.736,1.216 0.736,3.232 0,1.952 -0.544,3.328 -0.512,1.376 -1.536,2.272 -0.992,0.864 -2.432,1.248 -1.44,0.416 -3.296,0.416 -1.472,0 -2.8479998,-0.256 -1.344,-0.256 -2.4,-0.928 -1.024,-0.672 -1.664,-1.824 -0.608,-1.152 -0.608,-2.944 v -1.472 z"
         id="path8593"
         style="font-weight:bold;font-size:32px;line-height:1.865;font-family:'Helvetica Neue LT Com';-inkscape-font-specification:'Helvetica Neue LT Com, Bold';letter-spacing:0px;word-spacing:0px;fill:#ffffff;stroke-width:0.2" />
      <path
         d="m 21.022952,8.704 h 5.376 l 1.984,16.256 h 0.064 l 2.368,-16.256 h 4.992 l 2.56,16.256 h 0.064 l 1.92,-16.256 h 5.184 l -3.968,22.848 h -5.952 l -2.336,-16.224 h -0.064 l -2.208,16.224 h -5.952 z"
         id="path8595"
         style="font-weight:bold;font-size:32px;line-height:1.865;font-family:'Helvetica Neue LT Com';-inkscape-font-specification:'Helvetica Neue LT Com, Bold';letter-spacing:0px;word-spacing:0px;fill:#ffffff;stroke-width:0.2" />
      <path
         id="path8598"
         style="font-weight:bold;font-size:32px;line-height:1.865;font-family:'Helvetica Neue LT Com';-inkscape-font-specification:'Helvetica Neue LT Com, Bold';letter-spacing:0px;word-spacing:0px;fill:#1a1919;fill-opacity:1;stroke:none;stroke-width:0.1;stroke-linecap:square;stroke-linejoin:bevel;stroke-dasharray:none;stroke-dashoffset:0;stroke-opacity:1;paint-order:markers stroke fill"
         d="m 33.332142,14.884939 -2.75976,19.716797 2.8164,15.007813 h 0.03125 l 2.75196,-15.007813 z" />
      <g
         aria-label="Me"
         id="text8586"
         style="font-weight:bold;font-size:32px;line-height:1.865;font-family:'Helvetica Neue LT Com';-inkscape-font-specification:'Helvetica Neue LT Com, Bold';letter-spacing:0px;word-spacing:0px;fill:#00d9ff;stroke-width:0.1;stroke-linecap:square;stroke-linejoin:bevel;paint-order:markers stroke fill;fill-opacity:1"
         transform="translate(-155.1327,-15.382639)">
        <path
           d="m 177.83256,49.983818 h 7.872 l 2.816,15.008 h 0.064 l 2.72,-15.008 h 7.776 v 22.848 h -4.992 v -17.792 h -0.064 l -3.488,17.792 h -4.16 l -3.68,-17.792 h -0.064 v 17.792 h -4.8 z"
           id="path8588"
           style="fill:#00d9ff;fill-opacity:1" />
        <path
           d="m 210.69656,62.015818 q 0,-1.824 -0.352,-2.784 -0.32,-0.96 -1.408,-0.96 -1.28,0 -1.632,0.992 -0.352,0.992 -0.352,2.752 z m -3.744,3.008 v 1.056 q 0,2.016 0.384,3.008 0.384,0.992 1.504,0.992 1.024,0 1.408,-0.768 0.384,-0.768 0.48,-2.4 h 4.8 q -0.064,3.264 -1.76,4.832 -1.696,1.536 -4.96,1.536 -2.464,0 -3.872,-0.8 -1.376,-0.8 -2.112,-2.144 -0.704,-1.344 -0.896,-3.104 -0.16,-1.76 -0.16,-3.68 0,-1.824 0.288,-3.36 0.32,-1.568 1.12,-2.688 0.8,-1.152 2.144,-1.792 1.376,-0.64 3.488,-0.64 2.4,0 3.776,0.736 1.376,0.704 2.048,2.048 0.704,1.312 0.864,3.136 0.192,1.824 0.192,4.032 z"
           id="path8590"
           style="fill:#00d9ff;fill-opacity:1" />
      </g>
    </g>
  </g>
</svg>
